<svg xmlns="http://www.w3.org/2000/svg" width="450.791" height="450.792" viewBox="0 0 450.791 450.792"><path d="M225.395 0C101.113 0 0 101.112 0 225.392 0 349.677 101.113 450.79 225.395 450.79c124.282 0 225.396-101.113 225.396-225.398C450.79 101.112 349.678 0 225.396 0zm0 428.375c-111.92 0-202.98-91.054-202.98-202.983 0-111.924 91.06-202.978 202.98-202.978 111.922 0 202.98 91.054 202.98 202.978 0 111.93-91.06 202.983-202.98 202.983zm114.05-270.953c0 19.628-15.91 35.54-35.54 35.54-19.635 0-35.547-15.91-35.547-35.54s15.912-35.543 35.546-35.543c19.63-.002 35.542 15.913 35.542 35.542zm-220.888 0c0-19.628 15.912-35.543 35.542-35.543 19.626 0 35.542 15.914 35.542 35.542s-15.917 35.54-35.543 35.54c-19.63 0-35.543-15.912-35.543-35.54zm7.652 138.012h198.366v22.413H126.21v-22.413z"/></svg>