<svg xmlns="http://www.w3.org/2000/svg" width="66.137" height="66.137" viewBox="0 0 66.137 66.137"><path d="M33.068 66.136C14.834 66.136 0 51.302 0 33.07 0 14.834 14.834 0 33.068 0s33.07 14.835 33.07 33.07c0 18.232-14.836 33.066-33.07 33.066zm0-62.135C17.04 4 4 17.04 4 33.07c0 16.026 13.04 29.065 29.068 29.065s29.07-13.04 29.07-29.066C62.137 17.04 49.095 4 33.067 4z"/><circle cx="25.319" cy="25.616" r="4.335"/><circle cx="41.602" cy="25.616" r="4.335"/><path d="M33.406 48.42c-9.21 0-14.993-6.136-15.078-6.23l2.943-2.71c.426.458 10.6 11.066 25.646-.24l2.402 3.196c-5.96 4.48-11.355 5.983-15.912 5.983z"/></svg>