<svg xmlns="http://www.w3.org/2000/svg" viewBox="0 0 293.372 293.372"><path d="M146.69 293.372C65.804 293.372.002 227.565.002 146.686S65.805 0 146.69 0s146.68 65.807 146.68 146.686-65.797 146.686-146.68 146.686zm0-271.91c-69.044 0-125.22 56.18-125.22 125.225 0 69.038 56.176 125.213 125.22 125.213s125.217-56.17 125.217-125.207c0-69.05-56.17-125.23-125.218-125.23z" fill="#010002"/><path d="M146.69 249.827c-45.803 0-85.48-29.442-98.736-73.232-1.72-5.673 1.49-11.667 7.163-13.375 5.69-1.74 11.667 1.474 13.38 7.158 10.33 34.14 42.485 57.975 78.187 57.975 35.963 0 68.184-24.062 78.344-58.524 1.675-5.68 7.63-8.97 13.33-7.25 5.685 1.68 8.937 7.635 7.262 13.314-12.83 43.54-53.515 73.933-98.93 73.933z" fill="#010002"/><circle cx="113.521" cy="132.517" r="14.163" fill="#010002"/><circle cx="179.856" cy="132.517" r="14.163" fill="#010002"/></svg>