<svg xmlns="http://www.w3.org/2000/svg" viewBox="0 0 470.333 470.333"><path d="M235.167 470.333c129.767 0 235.167-105.4 235.167-235.167S364.934 0 235.167 0 0 105.4 0 235.167s105.4 235.166 235.167 235.166zm0-436.333c110.783 0 201.167 90.383 201.167 201.167S345.95 436.333 235.167 436.333 34 345.95 34 235.167 124.383 34 235.167 34z"/><path d="M164.333 196.633c7.083 0 13.883-2.833 18.983-7.933 10.483-10.483 10.483-27.483 0-37.967-5.1-5.1-11.9-7.933-18.983-7.933s-13.883 2.833-18.983 7.933c-10.483 10.483-10.483 27.483 0 37.967 5.1 5.1 11.9 7.933 18.983 7.933zM299.2 196.633c7.083 0 13.883-2.833 18.983-7.933 10.483-10.483 10.483-27.483 0-37.967-5.1-5.1-11.9-7.933-18.983-7.933s-13.883 2.833-18.983 7.933c-10.483 10.483-10.483 27.483 0 37.967 5.1 5.1 11.616 7.933 18.983 7.933zM230.917 352.75c87.55 0 113.05-58.933 114.183-61.2 3.683-8.783-.567-18.7-9.067-22.383-8.783-3.683-18.7.283-22.1 9.067-.85 1.7-18.7 40.517-82.733 40.517-62.05 0-73.1-36.55-73.667-38.25v.284L124.383 289c.85 2.55 17 63.75 106.534 63.75z"/></svg>